<?xml version="1.0" encoding="utf-8"?>
<!-- Generator: Adobe Illustrator 16.0.0, SVG Export Plug-In . SVG Version: 6.00 Build 0)  -->
<!DOCTYPE svg PUBLIC "-//W3C//DTD SVG 1.1//EN" "http://www.w3.org/Graphics/SVG/1.1/DTD/svg11.dtd">
<svg version="1.1" id="Layer_1" xmlns="http://www.w3.org/2000/svg" xmlns:xlink="http://www.w3.org/1999/xlink" x="0px" y="0px"
	 width="605.5px" height="625.541px" viewBox="0 -113.541 605.5 625.541" enable-background="new 0 -113.541 605.5 625.541"
	 xml:space="preserve">
<path display="none" d="M392,511.963H120c-66.168,0-120-53.832-120-120V223.692c0-37.191,17.655-72.86,47.226-95.415l136-103.729
	c42.849-32.681,102.699-32.681,145.548,0L372,57.488V31.963c1.056-26.536,38.953-26.516,40,0v65.911
	c0,7.603-4.311,14.548-11.125,17.923c-6.814,3.374-14.951,2.592-20.998-2.015l-75.355-57.423
	c-28.57-21.792-68.474-21.792-97.039-0.005l-136,103.729C51.77,175.118,40,198.897,40,223.692v168.271c0,44.112,35.888,80,80,80h272
	c44.112,0,80-35.888,80-80V223.692c0-25.099-11.637-48.959-31.129-63.827c-8.783-6.699-10.472-19.249-3.773-28.031
	c6.699-8.783,19.25-10.472,28.031-3.773C494.478,150.445,512,186.195,512,223.692v168.271C512,458.131,458.168,511.963,392,511.963z
	 M216,230.963c-13.807,0-25,11.193-25,25c1.321,33.17,48.691,33.145,50,0C241,242.155,229.807,230.963,216,230.963z M321,255.962
	c-1.321,33.17-48.691,33.146-50,0C272.32,222.792,319.691,222.818,321,255.962z M241,335.962c-1.321,33.17-48.691,33.146-50,0
	C192.321,302.792,239.691,302.818,241,335.962z M321,335.962c-1.321,33.17-48.691,33.146-50,0
	C272.32,302.792,319.691,302.818,321,335.962z"/>
<path d="M655.913,395.714"/>
<path display="none" d="M587.98,159.404c-2.179-40.706-19.413-78.93-48.531-107.63C509.865,22.617,471.227,6.56,430.649,6.56
	c-56.863,0-103.473,40.903-128.177,68.111C278.53,47.439,232.726,6.56,173.603,6.56c-40.576,0-79.215,16.058-108.794,45.215
	c-29.115,28.697-46.349,66.922-48.53,107.632c-2.155,40.391,8.087,75.407,33.212,113.538
	c38.652,58.646,231.525,220.934,239.716,227.813c3.683,3.094,8.361,4.798,13.177,4.798c4.481,0,8.909-1.501,12.465-4.227
	l17.283-13.253l15.366-11.783c8.962-6.873,10.663-19.757,3.789-28.72c-3.907-5.099-9.836-8.021-16.266-8.021
	c-4.539,0-8.848,1.463-12.453,4.23l-17.422,13.357l-2.124,1.627c-37.473-31.925-188.898-162.2-219.322-208.363
	c-19.993-30.345-28.17-57.736-26.513-88.813C60.557,98.696,112.78,47.526,173.603,47.526c62.807,0,111.011,70.45,111.473,71.135
	c3.744,5.641,10.02,9.063,16.783,9.153l0.296,0.002c6.65,0,12.908-3.25,16.74-8.695c0.506-0.717,51.271-71.596,111.752-71.596
	c60.827,0,113.053,51.171,116.422,114.069c1.685,31.421-6.246,57.986-26.517,88.825c-2.844,4.327-20.997,23.103-46.182,48.019
	c-14.933,14.77-32.332,31.694-50.484,49.049c-0.786,0.752-1.476,1.564-2.114,2.402c-12.148,11.911-25.476,24.819-39.235,37.977
	c-8.16,7.809-8.448,20.8-0.646,28.96c3.899,4.08,9.157,6.327,14.805,6.328c0.001,0,0.002,0,0.002,0
	c5.299,0,10.326-2.017,14.157-5.68c9.995-9.558,30.657-29.409,50.933-49.458l-0.055-0.057
	c10.966-10.543,26.292-25.376,41.404-40.322c23.401-23.145,46.285-46.555,51.65-54.712
	C571.695,247.202,590.749,211.052,587.98,159.404z"/>
<g>
	<path d="M382.214,313.569c-0.087-0.087-0.184-0.158-0.27-0.244l-31.067-31.065l-6.184-6.185l-6.185-6.186l-25.924-25.923
		l-0.628-0.628l-25.923-25.924l-6.185-6.183l-6.184-6.186l-31.067-31.067c-0.084-0.088-0.157-0.182-0.244-0.269
		c-6.861-6.862-17.987-6.862-24.848,0c-6.861,6.861-6.861,17.985,0,24.846l31.324,31.324l6.184,6.183l6.185,6.185l25.923,25.925
		l0.628,0.63l25.925,25.921l6.184,6.185l6.185,6.185l31.323,31.324c6.861,6.861,17.985,6.861,24.847,0
		C389.077,331.555,389.077,320.431,382.214,313.569z"/>
	<path d="M242.355,338.418c0.086-0.088,0.16-0.186,0.245-0.271l31.066-31.066l6.184-6.184l6.185-6.186l25.923-25.923l0.628-0.629
		l25.924-25.922l6.185-6.186l6.184-6.182l31.067-31.067c0.086-0.086,0.183-0.157,0.27-0.246c6.863-6.861,6.863-17.985,0-24.846
		c-6.861-6.862-17.985-6.862-24.847,0l-31.323,31.324l-6.185,6.183l-6.184,6.184l-25.925,25.924l-0.628,0.629L261.2,269.878
		l-6.185,6.184l-6.184,6.186l-31.324,31.322c-6.86,6.861-6.861,17.985,0,24.849C224.368,345.279,235.494,345.279,242.355,338.418z"
		/>
</g>
<path d="M543.479,439.003l-20.672-234.474L510.229,61.967c-2.912-33.009-30.096-57.9-63.23-57.9h-38.372v0.021h-12.821v-9.004
	v-9.129v-0.529h-0.007c-0.286-52.661-43.212-95.415-95.937-95.415c-52.727,0-95.65,42.753-95.937,95.414h-0.007v0.53v9.129v9.004
	h-4.716c-0.14-0.003-0.275-0.021-0.416-0.021c-0.138,0-0.271,0.018-0.409,0.021h-7.259h-0.984h-4.524H165.75h-13.006
	c-33.137,0-60.32,24.891-63.23,57.898l-33.27,377.017c-1.56,17.678,4.43,35.335,16.43,48.44c12,13.104,29.061,20.617,46.807,20.617
	h360.762c17.745,0,34.806-7.515,46.809-20.619C539.049,474.336,545.038,456.68,543.479,439.003z M497.912,460.765
	c-4.584,5.007-10.859,7.764-17.67,7.764H119.48c-6.814,0-13.091-2.76-17.678-7.77c-4.582-5.004-6.773-11.498-6.173-18.282
	l33.263-377.013c1.102-12.452,11.356-21.842,23.852-21.842h13.006h19.859h5.508h19.859v-0.021h7.668
	c10.917,0,19.767-8.85,19.767-19.767c0-0.092-0.013-0.18-0.014-0.271h0.029v-38.137h-0.003c0.286-33.636,27.73-60.915,61.438-60.915
	c33.706,0,61.15,27.278,61.437,60.914h-0.003V4.088h-13.792h-9.84h-9.839h-49.43c-0.137-0.003-0.271-0.021-0.409-0.021
	c-10.917,0-19.768,8.85-19.768,19.767s8.851,19.767,19.768,19.767h49.839h9.839h9.84h61.123h0.614h37.758
	c12.277,0,22.511,9.206,23.802,21.381c0.008,0.166,0.019,0.331,0.032,0.497l33.264,376.998
	C504.694,449.263,502.498,455.758,497.912,460.765z"/>
</svg>
